<svg width="24" height="24" viewBox="0 0 24 24" fill="none" xmlns="http://www.w3.org/2000/svg">
<path d="M12 1C5.92525 1 1 5.94338 1 12.0405C1 17.2185 4.55208 21.5629 9.34258 22.7562V15.4143H7.07475V12.0405H9.34167V10.5868C9.34167 6.82937 11.0366 5.08682 14.7124 5.08682C15.4091 5.08682 16.6117 5.22482 17.1031 5.36099V8.4192C16.8437 8.3916 16.3927 8.37872 15.8326 8.37872C14.0295 8.37872 13.3319 9.06415 13.3319 10.8472V12.0405H16.9253L16.3083 15.4143H13.3319V23C18.7797 22.3403 23 17.6849 23 12.0405C23 5.94338 18.0748 1 12 1Z" fill="#001E61"/>
</svg>